<svg width="24" height="20" viewBox="0 0 24 20" fill="none" xmlns="http://www.w3.org/2000/svg">
<path d="M21.334 10.0003V4.16699H23.6673V11.167H21.334M21.334 15.8337H23.6673V13.5003H21.334M9.66732 11.167C12.7823 11.167 19.0007 12.7303 19.0007 15.8337V19.3337H0.333984V15.8337C0.333984 12.7303 6.55232 11.167 9.66732 11.167ZM9.66732 0.666992C10.905 0.666992 12.092 1.15866 12.9672 2.03383C13.8423 2.909 14.334 4.09598 14.334 5.33366C14.334 6.57134 13.8423 7.75832 12.9672 8.63349C12.092 9.50866 10.905 10.0003 9.66732 10.0003C8.42964 10.0003 7.24266 9.50866 6.36749 8.63349C5.49232 7.75832 5.00065 6.57134 5.00065 5.33366C5.00065 4.09598 5.49232 2.909 6.36749 2.03383C7.24266 1.15866 8.42964 0.666992 9.66732 0.666992M9.66732 13.3837C6.20232 13.3837 2.55065 15.087 2.55065 15.8337V17.117H16.784V15.8337C16.784 15.087 13.1323 13.3837 9.66732 13.3837M9.66732 2.88366C9.01754 2.88366 8.39437 3.14178 7.93491 3.60125C7.47544 4.06071 7.21732 4.68388 7.21732 5.33366C7.21732 5.98344 7.47544 6.60661 7.93491 7.06607C8.39437 7.52553 9.01754 7.78366 9.66732 7.78366C10.3171 7.78366 10.9403 7.52553 11.3997 7.06607C11.8592 6.60661 12.1173 5.98344 12.1173 5.33366C12.1173 4.68388 11.8592 4.06071 11.3997 3.60125C10.9403 3.14178 10.3171 2.88366 9.66732 2.88366V2.88366Z" fill="black"/>
</svg>
